<?xml version="1.0" standalone="no"?>
<!DOCTYPE svg PUBLIC "-//W3C//DTD SVG 20010904//EN"
 "http://www.w3.org/TR/2001/REC-SVG-20010904/DTD/svg10.dtd">
<svg version="1.0" xmlns="http://www.w3.org/2000/svg"
 width="813.000000pt" height="813.000000pt" viewBox="0 0 813.000000 813.000000"
 preserveAspectRatio="xMidYMid meet">
<metadata>
Created by potrace 1.14, written by Peter Selinger 2001-2017
</metadata>
<g transform="translate(0.000000,813.000000) scale(0.100000,-0.100000)"
fill="#000000" stroke="none">
<path d="M3919 8016 c-75 -61 -227 -185 -339 -276 -111 -91 -210 -172 -220
-180 -9 -8 -32 -26 -50 -40 -18 -14 -38 -30 -44 -35 -6 -6 -76 -64 -156 -129
-80 -65 -154 -125 -165 -134 -11 -10 -92 -75 -180 -147 -88 -71 -162 -132
-165 -135 -3 -3 -61 -50 -130 -105 -69 -55 -127 -103 -130 -106 -3 -3 -66 -54
-140 -114 -74 -59 -137 -111 -140 -114 -3 -4 -25 -22 -50 -41 -50 -39 -77 -61
-129 -105 -20 -17 -94 -78 -166 -135 -71 -57 -132 -107 -135 -110 -3 -3 -50
-41 -105 -85 -55 -44 -102 -82 -105 -85 -3 -3 -30 -25 -60 -50 -30 -25 -64
-52 -75 -62 -11 -9 -119 -96 -240 -194 -121 -98 -225 -183 -231 -189 -6 -5
-158 -129 -337 -275 l-327 -265 0 -2452 0 -2453 872 3 872 2 2 130 c1 131 11
315 19 356 3 12 7 45 10 73 11 113 61 376 113 593 l18 72 69 -41 c187 -109
534 -263 795 -351 255 -86 589 -171 795 -201 22 -4 65 -11 95 -16 82 -14 153
-23 270 -35 112 -11 151 -14 310 -21 85 -3 157 -8 159 -10 2 -2 5 -16 7 -31 1
-15 6 -44 9 -63 24 -124 54 -307 60 -365 4 -33 9 -68 11 -77 5 -16 113 -17
1720 -17 l1714 0 0 2454 c0 2061 -2 2455 -14 2462 -7 4 -33 24 -57 45 -45 37
-460 375 -539 438 -24 19 -48 40 -54 45 -10 9 -256 210 -691 563 -77 62 -149
121 -160 130 -11 9 -56 46 -100 81 -44 36 -96 79 -116 95 -38 33 -57 49 -134
111 -28 22 -57 45 -65 52 -8 7 -96 78 -195 159 -99 80 -225 182 -280 227 -55
45 -102 84 -105 87 -3 3 -25 21 -50 40 -25 19 -47 37 -50 40 -7 8 -203 168
-245 200 -18 14 -115 93 -216 176 -101 82 -310 253 -464 378 -154 126 -291
238 -305 250 -36 29 -103 81 -115 88 -5 3 -71 -44 -146 -106z m-569 -2417 c93
-57 235 -247 340 -458 133 -266 256 -670 337 -1101 l18 -94 900 0 c622 0 902
-3 907 -10 4 -6 8 -23 8 -38 0 -41 63 -225 101 -293 108 -198 268 -336 495
-425 l92 -36 -52 -110 c-234 -500 -601 -858 -1086 -1056 -144 -59 -378 -126
-503 -143 -27 -4 -58 -8 -70 -10 -63 -13 -184 -19 -358 -20 -169 0 -195 -2
-193 -15 3 -13 36 -199 49 -272 l4 -28 -57 5 c-31 3 -104 12 -162 21 -140 21
-139 21 -230 39 -14 2 -36 7 -50 9 -57 10 -327 74 -360 85 -14 5 -54 17 -90
26 -203 56 -589 194 -820 294 -130 56 -259 116 -277 128 -10 7 -3 34 27 114
22 57 40 108 40 112 0 5 6 23 14 40 8 18 21 52 29 77 8 25 57 158 107 295 220
600 387 1156 433 1450 3 17 10 62 17 100 6 39 13 81 15 95 6 39 15 138 20 210
40 611 115 923 245 1013 33 23 68 21 110 -4z m3085 -1669 c204 -47 288 -181
240 -385 l-18 -77 -31 6 c-17 3 -69 25 -116 48 -98 48 -197 139 -247 228 -35
61 -76 176 -68 189 7 12 179 5 240 -9z m-4164 -2194 c553 -262 1243 -473 1799
-551 81 -11 120 -16 165 -20 113 -11 160 -16 162 -18 1 -2 5 -18 8 -37 3 -19
10 -61 16 -93 5 -32 12 -73 14 -92 l5 -33 -78 4 c-205 11 -409 31 -512 49 -14
3 -43 7 -65 11 -22 3 -47 7 -55 9 -8 2 -37 7 -65 11 -27 3 -53 8 -56 10 -3 2
-21 6 -40 9 -31 5 -165 35 -229 52 -14 3 -30 7 -37 9 -60 12 -420 127 -478
153 -11 5 -63 26 -115 47 -140 55 -330 146 -460 220 -168 95 -155 75 -119 185
17 52 32 100 35 107 5 16 0 18 105 -32z"/>
<path d="M3745 3581 c-61 -29 -105 -78 -140 -155 -42 -92 -55 -155 -55 -275 0
-264 120 -451 290 -451 170 0 287 182 288 449 1 210 -74 378 -193 432 -53 24
-138 24 -190 0z"/>
</g>
</svg>
